<svg enable-background="new 0 0 469.333 469.333" version="1.1" viewBox="0 0 469.333 469.333" xml:space="preserve" xmlns="http://www.w3.org/2000/svg" fill="#fff">
		<path d="m412.92 338.18c-12.209-18.219-28.917-43.167-28.917-114.18v-32c0-67.512-45.066-124.63-106.67-143.04v-6.29c0-23.532-19.145-42.667-42.666-42.667s-42.667 19.135-42.667 42.667v6.29c-61.599 18.413-106.67 75.531-106.67 143.04v32c0 71.01-16.708 95.958-28.917 114.18-7.063 10.552-13.75 20.521-13.75 35.156 0 34.775 72.495 46.978 131.27 51.181 8.241 26.383 32.432 44.819 60.729 44.819s52.488-18.436 60.729-44.819c58.776-4.203 131.27-16.406 131.27-51.181 1e-3 -14.635-6.687-24.604-13.749-35.156zm-199.58-295.51c0-11.76 9.563-21.333 21.333-21.333s21.334 9.572 21.334 21.333v1.704c-6.987-1.006-14.072-1.704-21.333-1.704s-14.346 0.698-21.333 1.704v-1.704zm21.334 405.33c-15.944 0-29.947-8.799-37.221-22.147 15.115 0.638 28.24 0.814 37.221 0.814 8.983 0 22.107-0.176 37.223-0.814-7.275 13.348-21.279 22.147-37.223 22.147zm0-42.667c-97.688 0-170.67-16.896-170.67-32 0-7.802 3.292-13.063 10.146-23.281 12.937-19.333 32.521-48.552 32.521-126.05v-32c0-70.583 57.417-128 128-128s128 57.417 128 128v32c0 77.5 19.583 106.72 32.521 126.05 6.854 10.219 10.146 15.479 10.146 23.281-1e-3 15.105-72.98 32-170.67 32z"/>
</svg>
