<?xml version="1.0" encoding="utf-8"?>
<!-- Generator: Adobe Illustrator 24.1.2, SVG Export Plug-In . SVG Version: 6.00 Build 0)  -->
<svg version="1.1" id="Layer_1" xmlns="http://www.w3.org/2000/svg" xmlns:xlink="http://www.w3.org/1999/xlink" x="0px" y="0px"
	 viewBox="0 0 1951 264.5" style="enable-background:new 0 0 1951 264.5;" xml:space="preserve">
<style type="text/css">
	.st0{fill:#FFFFFF;}
	.st1{fill:#F7941D;}
</style>
<path class="st0" d="M148.7,135c0,23.7-8.4,41.3-25.5,53.5c-12.7,8.9-29.7,13.4-50.3,13.4h-33V67.8h35.7c25.5,0,44.9,7,57.4,20.7
	C143.4,100.1,148.7,115.8,148.7,135 M79.3,31.2H20c-5.5,0-10.4,2-14.1,5.8C2,40.8,0,45.6,0,50.9v167.9c0,5.3,2,10.1,5.8,13.9
	c3.8,3.8,8.7,5.8,14.2,5.8h55.1c30.7,0,56-7,75.1-20.9c25.9-18.8,39-46.6,39-82.6c0-29.4-8.2-53.3-24.2-71
	C145.4,42.2,116.6,31.2,79.3,31.2"/>
<path class="st0" d="M410.5,135.1c0,18.7-6.5,34.8-19.5,48c-12.9,13.1-28.8,19.8-47.5,19.8s-34.5-6.6-47.3-19.6
	c-12.8-13.1-19.3-29.3-19.3-48.1c0-18.7,6.5-34.9,19.4-48.2c13-13.4,28.4-19.9,47.3-19.9c18.6,0,34.6,6.7,47.4,19.9
	C403.9,100.2,410.5,116.4,410.5,135.1 M343.6,28.5c-29.5,0-55.1,10.3-76.2,30.8c-21.1,20.5-31.8,46-31.8,75.8
	c0,29.6,10.7,55,31.8,75.4c21,20.3,46.6,30.6,76.1,30.6s55.1-10.3,76.1-30.6c21.1-20.4,31.8-45.7,31.8-75.4
	c0-29.8-10.7-55.3-31.8-75.8C398.7,38.9,373.1,28.5,343.6,28.5"/>
<path class="st0" d="M1145.5,34.3c-3.8,3.8-5.8,8.6-5.8,13.9v103.6c0,16.1-4,28.7-11.9,37.5c-8.4,9.3-21,14.1-37.4,14.1
	c-16.3,0-28.4-4.6-36.9-14.1c-7.9-8.9-12-21.5-12-37.6V48.2c0-5.3-2-10.1-5.8-13.9c-7.6-7.7-20.2-7.7-28.1-0.2
	c-4,3.8-6.1,8.7-6.1,14v106.4c0,24.6,7,44.7,20.6,59.6c16,17.9,39,26.9,68.4,26.9s52.4-9,68.3-26.8c13.7-15,20.7-35.1,20.7-59.7
	V48.2c0-5.4-2.1-10.2-6-14C1165.6,26.6,1153.1,26.7,1145.5,34.3"/>
<path class="st0" d="M1352.5,127.2L1352.5,127.2c-7.5-4.2-18.6-8.5-33.1-12.8c-13.8-4-21.9-6.5-24.2-7.3
	c-21.5-7.9-21.5-16.9-21.5-19.9c0-10.2,3.8-21.8,33.8-21.8c8.2,0,16.6,1.5,25.1,4.6c1.9,0.6,4,1.5,6.3,2.6c2.9,1.4,5.3,2.5,7.1,3.3
	c8.2,3.5,16.3,2.1,22.2-3.7c3.6-3.6,5.5-8.3,5.5-13.6c0-6.2-3.2-15-18.1-21.2c-13.3-5.9-29.1-8.8-47-8.8c-23.4,0-42,5.1-55.1,15.2
	c-13.8,10.6-20.9,25.4-20.9,44c0,22.1,11.3,38.9,34,50.1l54.6,19.3c16.7,7.2,18.6,15.4,18.6,20.9c0,8-2.5,13.9-7.9,18.8
	c-5.5,5-14.5,7.5-26.7,7.5c-10.5,0-20.5-2.3-29.8-6.8c-2.9-1.3-5.7-2.8-8.4-4.4c-3.1-1.9-5.5-3.4-7-4.2c-7.7-4.3-16.1-3.1-22.5,3.3
	c-3.7,3.7-5.7,8.5-5.7,14c0,8.1,5.1,15,15.2,20.6c17.6,9.6,37.2,14.4,58.2,14.4c22.2,0,40.5-5.7,54.4-17
	c14.4-11.7,21.8-27.9,21.8-48C1381.4,155,1371.6,138.5,1352.5,127.2"/>
<path class="st0" d="M670.6,237.9c-2.8,0-5.1-2.3-5.1-5.1V107.4l-48.1,51.9c-2.3,2.4-5.4,3.9-8.8,3.8c-3.3,0-6.5-1.4-8.7-3.9
	l-46.8-51.3v113.3c0,5.4-4.4,9.8-9.8,9.8h-52.5c-5.4,0-9.8-4.4-9.8-9.8V9.8c0-5.4,4.4-9.8,9.8-9.8h58.3c3,0,5.9,1.4,7.7,3.8
	l52.5,67.7L662,3.8c1.9-2.4,4.7-3.8,7.7-3.8h58c5.4,0,9.8,4.4,9.8,9.8v25.5c0,2.8-2.3,5.1-5.1,5.1s-5.1-2.3-5.1-5.1v-25h-57.5
	l-52.5,68c-3.7,4.8-11.7,4.8-15.5,0l-52.9-68.2l-57.5,0.2v210.4h51.5v-126c0-2.1,1.3-4,3.3-4.8s4.2-0.3,5.6,1.3l55.7,61.1
	c0.4,0.5,1,0.6,1.2,0.5c0.3,0,0.8-0.1,1.2-0.5l57-61.4c1.4-1.6,3.7-2.1,5.6-1.3c2,0.8,3.3,2.7,3.3,4.8v138.4
	C675.7,235.6,673.4,237.9,670.6,237.9"/>
<path class="st0" d="M688.2,264.5c-12.6,0-22.8-10.2-22.8-22.8V194c0-2.8,2.3-5.1,5.1-5.1s5.1,2.3,5.1,5.1v47.7
	c0,6.9,5.6,12.5,12.5,12.5s12.5-5.6,12.5-12.5V138.8c0-2.8,2.3-5.1,5.1-5.1s5.1,2.3,5.1,5.1v102.9
	C711,254.3,700.8,264.5,688.2,264.5"/>
<path class="st1" d="M947.4,33.6h-58c-3,0-5.9,1.4-7.7,3.8l-52.5,67.7l-52.5-67.7c-1.9-2.4-4.7-3.8-7.7-3.8h-58.3
	c-5.4,0-9.8,4.4-9.8,9.8v161l0,0V253c0,4-1.9,7.6-4.9,9.9c0.3,0,0.5-0.1,0.8-0.2c14.3-5.3,60.9-22.7,63.3-23.9
	c7.8-3.8,12.9-11.8,12.9-20.5v-38.9v-37.9l46.8,51.3c2.2,2.4,5.4,3.9,8.7,3.9l0,0c3.3,0,6.5-1.4,8.7-3.8l48.1-51.9v113.7
	c0,5.4,4.4,9.8,9.8,9.8h52.5c5.4,0,9.8-4.4,9.8-9.8V43.4C957.2,38,952.8,33.6,947.4,33.6"/>
<g>
	<path class="st0" d="M1767.2,236c-3.2,3.3-95.1,4.7-98,0c-3-4.8-5.2-123.6,0-128c6.7-5.6,15.7-6,22,0c4.3,4,0.4,94.3,5,99
		c5,5.2,68.4,0.9,71,3C1769.4,211.8,1769.8,233.2,1767.2,236z"/>
	<path class="st0" d="M1945.3,236H1914l-9.3-26H1855l-9.3,26h-31.5c0,0,44.4-123.5,51.3-128c8.3-5.4,19.8-4.6,28.6,0
		C1899.6,110.9,1945.3,236,1945.3,236z M1896.1,187c0,0-11.2-45.5-16.3-45.5c-5.8,0-16.3,45.5-16.3,45.5H1896.1z"/>
</g>
<path class="st0" d="M1589.9,168.8L1589.9,168.8c-4.7-2.7-11.8-5.4-21-8.1c-8.7-2.5-13.9-4.1-15.3-4.6c-13.6-5-13.6-10.7-13.6-12.6
	c0-6.5,2.4-13.8,21.4-13.8c5.2,0,10.5,0.9,15.9,2.9c1.2,0.4,2.5,0.9,4,1.6c1.8,0.9,3.4,1.6,4.5,2.1c5.2,2.2,10.3,1.3,14.1-2.3
	c2.3-2.3,3.5-5.3,3.5-8.6c0-3.9-2-9.5-11.5-13.4c-8.4-3.7-18.4-5.6-29.8-5.6c-14.8,0-26.6,3.2-34.9,9.6
	c-8.7,6.7-13.2,16.1-13.2,27.9c0,14,7.2,24.6,21.5,31.7l34.6,12.2c10.6,4.6,11.8,9.8,11.8,13.2c0,5.1-1.6,8.8-5,11.9
	c-3.5,3.2-9.2,4.7-16.9,4.7c-6.6,0-13-1.5-18.9-4.3c-1.8-0.8-3.6-1.8-5.3-2.8c-2-1.2-3.5-2.2-4.4-2.7c-4.9-2.7-10.2-2-14.2,2.1
	c-2.3,2.3-3.6,5.4-3.6,8.9c0,5.1,3.2,9.5,9.6,13c11.1,6.1,23.6,9.1,36.8,9.1c14.1,0,25.6-3.6,34.4-10.8c9.1-7.4,13.8-17.7,13.8-30.4
	C1608.2,186.4,1602,175.9,1589.9,168.8"/>
</svg>
