<?xml version="1.0" encoding="utf-8"?>
<!-- Generator: Adobe Illustrator 24.1.2, SVG Export Plug-In . SVG Version: 6.00 Build 0)  -->
<svg version="1.1" id="Camada_1" xmlns="http://www.w3.org/2000/svg" xmlns:xlink="http://www.w3.org/1999/xlink" x="0px" y="0px"
	 viewBox="0 0 713 106.4" style="enable-background:new 0 0 713 106.4;" xml:space="preserve">
<style type="text/css">
	.st0{fill:#DB9531;}
	.st1{fill:#FFFFFF;}
</style>
<g id="Icone_Amarelo">
	<rect x="395.9" y="51.7" class="st0" width="25.4" height="23.3"/>
</g>
<g id="Telhado">
	<polygon class="st0" points="359.4,19.9 362.7,29.3 408.6,12.4 455,29.3 458.4,19.9 446.9,15.6 446.9,0 434.9,0 434.9,11.1 
		408.6,1.7 	"/>
</g>
<path class="st1" d="M79.2,47c-0.7-2.9-1.9-5.2-3.5-7s-3.9-3-6.7-3.8c-2.8-0.7-6.3-1.1-10.5-1.1H0v46.4h13.7V48.9h44.8
	c3,0,5.2,0.6,6.4,1.9c1.2,1.3,1.8,3.6,1.8,7v24.5c0,3.4-0.6,5.8-1.8,7c-1.2,1.2-3.3,1.8-6.4,1.8H0v13.6h58.5c4.2,0,7.8-0.4,10.5-1.1
	c2.8-0.7,5-2,6.7-3.7c1.7-1.8,2.8-4.1,3.5-7s1.1-6.5,1.1-10.7V57.7C80.3,53.5,79.9,49.9,79.2,47z"/>
<path class="st1" d="M113.7,104.7c-4.2,0-7.7-0.4-10.5-1.1s-5-2-6.7-3.7c-1.7-1.8-2.9-4.1-3.5-7c-0.7-2.9-1-6.5-1-10.7V57.7
	c0-4.2,0.3-7.8,1-10.7s1.9-5.2,3.5-7c1.7-1.8,3.9-3,6.7-3.7c2.8-0.7,6.3-1.1,10.5-1.1h36.7c4.1,0,7.6,0.4,10.4,1.1
	c2.8,0.7,5,2,6.7,3.7c1.7,1.8,2.9,4.1,3.6,7c0.7,2.9,1.1,6.5,1.1,10.7v24.4c0,4.2-0.4,7.8-1.1,10.7c-0.7,2.9-1.9,5.2-3.6,7
	c-1.7,1.8-3.9,3-6.7,3.7s-6.2,1.1-10.4,1.1h-36.7V104.7z M158.5,57.8c0-3.4-0.6-5.8-1.8-7s-3.3-1.9-6.4-1.9h-36.6
	c-3,0-5.2,0.6-6.4,1.9c-1.2,1.2-1.8,3.6-1.8,7v24.4c0,1.8,0.1,3.2,0.4,4.3c0.3,1.1,0.7,2,1.4,2.7c0.6,0.7,1.5,1.1,2.5,1.4
	s2.3,0.4,3.9,0.4h36.6c3.1,0,5.2-0.6,6.4-1.8c1.2-1.2,1.8-3.5,1.8-7V57.8z"/>
<path class="st1" d="M253.1,104.7V59.2l-22,45.5h-12.6l-21.9-45.5v45.5H184V35.2h15l26,55.5l26-55.5h14.6v69.5H253.1z"/>
<path class="st1" d="M346.5,104.7V59.2l-22,45.5h-12.6L290,59.2v45.5h-12.5V35.2h14.9l26,55.5l26.1-55.5h14.6v69.5H346.5z"/>
<path class="st1" d="M391.8,104.7c-3.8,0-7.1-0.4-9.7-1.2c-2.7-0.8-4.8-2.1-6.5-3.9s-2.8-4.1-3.6-6.8c-0.7-2.8-1.1-6.1-1.1-10.1
	V35.2h13.5v47.5c0,3,0.6,5.1,1.7,6.4s3,2,5.7,2h33.9c2.7,0,4.6-0.7,5.7-2s1.7-3.5,1.7-6.4V35.2h13.6v47.5c0,4-0.4,7.3-1.1,10.1
	c-0.7,2.8-1.9,5-3.6,6.8s-3.8,3.1-6.5,3.9s-6,1.2-9.8,1.2H391.8z"/>
<path class="st1" d="M530.2,84.6c0,3.7-0.4,6.8-1.2,9.4s-2.1,4.6-3.9,6.2c-1.8,1.6-4.1,2.7-7,3.4c-2.9,0.7-6.4,1.1-10.5,1.1h-49.1
	c0.1-2.3,0.3-4.6,0.5-6.8c0.2-2.3,0.3-4.5,0.5-6.8h47.3c1.8,0,3.3-0.1,4.6-0.4c1.2-0.2,2.2-0.7,2.9-1.3s1.2-1.4,1.5-2.4
	s0.5-2.2,0.5-3.7c0-2.9-0.6-4.9-1.9-6c-1.3-1.1-3.7-1.7-7.3-1.7h-28.2c-4.2,0-7.7-0.4-10.5-1.1s-5-1.9-6.8-3.4
	c-1.7-1.5-2.9-3.5-3.7-5.9c-0.7-2.4-1.1-5.1-1.1-8.3v-2.3c0-3.4,0.4-6.4,1.1-8.9s2-4.5,3.7-6.1c1.8-1.5,4.1-2.7,6.9-3.4
	c2.9-0.7,6.4-1.1,10.7-1.1h48.7c-0.3,2.4-0.5,4.7-0.8,6.9c-0.3,2.3-0.6,4.6-0.9,6.9h-47c-3.4,0-5.6,0.6-6.8,1.7
	c-1.2,1.1-1.8,3.1-1.8,5.9c0,2.8,0.6,4.7,1.8,5.9c1.2,1.2,3.4,1.8,6.8,1.8H507c4.3,0,7.9,0.4,10.9,1.1s5.4,1.8,7.2,3.3
	s3.1,3.3,3.9,5.6c0.8,2.3,1.2,4.9,1.2,7.9L530.2,84.6L530.2,84.6z"/>
<g id="Linhas_Guias">
</g>
<path class="st1" d="M611.2,75c-0.4-1.5-1-2.8-1.9-3.7s-2.1-1.6-3.6-2c-1.5-0.4-3.4-0.6-5.6-0.6H569v24.7h7.3V76.1h23.9
	c1.6,0,2.8,0.3,3.4,1s1,1.9,1,3.7v13.1c0,1.8-0.3,3.1-1,3.7c-0.6,0.6-1.8,1-3.4,1H569v7.3h31.2c2.2,0,4.2-0.2,5.6-0.6
	c1.5-0.4,2.7-1.1,3.6-2c0.9-1,1.5-2.2,1.9-3.7c0.4-1.5,0.6-3.5,0.6-5.7V80.7C611.8,78.5,611.5,76.6,611.2,75z"/>
<path class="st1" d="M630.9,106.4c-2.3,0-4.2-0.2-5.7-0.6c-1.5-0.4-2.7-1.1-3.6-2c-0.9-1-1.6-2.2-1.9-3.8c-0.4-1.6-0.5-3.5-0.5-5.8
	V80.9c0-2.3,0.2-4.2,0.5-5.8s1-2.8,1.9-3.8c0.9-1,2.1-1.6,3.6-2c1.5-0.4,3.4-0.6,5.7-0.6h19.9c2.2,0,4.1,0.2,5.6,0.6s2.7,1.1,3.6,2
	c0.9,1,1.6,2.2,2,3.8s0.6,3.5,0.6,5.8v13.2c0,2.3-0.2,4.2-0.6,5.8c-0.4,1.6-1,2.8-2,3.8s-2.1,1.6-3.6,2s-3.4,0.6-5.6,0.6
	L630.9,106.4L630.9,106.4z M655.2,81c0-1.8-0.3-3.1-1-3.8c-0.7-0.7-1.8-1-3.5-1h-19.9c-1.6,0-2.8,0.3-3.5,1c-0.7,0.7-1,2-1,3.8v13.2
	c0,1,0.1,1.7,0.2,2.3c0.2,0.6,0.4,1.1,0.8,1.5c0.3,0.4,0.8,0.6,1.4,0.8c0.5,0.2,1.2,0.2,2.1,0.2h19.9c1.7,0,2.8-0.3,3.5-1
	s1-1.9,1-3.8V81z"/>
<path class="st1" d="M713,76.4V69h-31.2c-2.2,0-4.1,0.2-5.6,0.6c-1.5,0.4-2.7,1.1-3.6,2c-0.9,1-1.5,2.2-1.9,3.7
	c-0.4,1.5-0.6,3.5-0.6,5.7v13.1c0,2.2,0.2,4.2,0.6,5.7s1,2.8,1.9,3.7c0.9,0.9,2.1,1.6,3.6,2c1.4,0.4,3.4,0.6,5.6,0.6H713v-7.3h-31.2
	c-1.7,0-2.8-0.3-3.4-1c-0.6-0.6-1-1.9-1-3.7V81.1c0-1.8,0.3-3,1-3.7s1.8-1,3.4-1h23.9"/>
</svg>
