<?xml version="1.0" encoding="utf-8"?>
<!-- Generator: Adobe Illustrator 24.1.2, SVG Export Plug-In . SVG Version: 6.00 Build 0)  -->
<svg version="1.1" id="Capa_1" xmlns="http://www.w3.org/2000/svg" xmlns:xlink="http://www.w3.org/1999/xlink" x="0px" y="0px"
	 viewBox="0 0 512 512" style="enable-background:new 0 0 512 512;" xml:space="preserve">
<style type="text/css">
	.st0{fill:#C60000;}
</style>
<g>
	<g>
		<g>
			<path class="st0" d="M368,256h-64c-8.8,0-16,7.2-16,16v128c0,8.8,7.2,16,16,16h64c17.7,0,32-14.3,32-32v-96
				C400,270.3,385.7,256,368,256z M368,384h-48v-96h48V384z"/>
			<path class="st0" d="M512,288v-32h-80c-8.8,0-16,7.2-16,16v144h32v-64h64v-32h-64v-32H512z"/>
			<path class="st0" d="M32,464V48c0-8.8,7.2-16,16-16h240v64c0,17.7,14.3,32,32,32h64v48h32v-64c0-4.3-1.6-8.3-4.6-11.4l-96-96
				c-3-3-7.1-4.7-11.4-4.6H48C21.5,0,0,21.5,0,48v416c0,26.5,21.5,48,48,48h112v-32H48C39.2,480,32,472.8,32,464z"/>
			<path class="st0" d="M240,256h-64c-8.8,0-16,7.2-16,16v144h32v-48h48c17.7,0,32-14.3,32-32v-48C272,270.3,257.7,256,240,256z
				 M240,336h-48v-48h48V336z"/>
		</g>
	</g>
</g>
</svg>
