<?xml version="1.0" encoding="iso-8859-1"?>
<!-- Generator: Adobe Illustrator 19.0.0, SVG Export Plug-In . SVG Version: 6.00 Build 0)  -->
<svg version="1.1" id="Camada_1" xmlns="http://www.w3.org/2000/svg" xmlns:xlink="http://www.w3.org/1999/xlink" x="0px" y="0px"
	 viewBox="-254 256.5 489.5 489.5" enable-background="new -254 256.5 489.5 489.5" xml:space="preserve">
<path fill="#FFFFFF" d="M-8.3,256.5c-135.4,0-245.7,110.2-245.7,245.7c0,64.6,25.2,123.6,66.1,167.4c0.9,1.1,1.9,2.3,3,3.1
	c44.7,46.2,107.4,75.2,176.5,75.2c135.4,0,245.7-110.2,245.7-245.7S127.1,256.5-8.3,256.5z M-151.8,668.2
	c66.7-21.8,90.2-48.2,98.4-65.4c12.3,5.6,26.1,8.4,41.5,8.7h1h1.1h1c16.6-0.3,31.5-3.7,44.5-10.2c7.6,17,30.5,44.5,99.2,66.9
	c-38.5,33.2-88.6,53.5-143.5,53.5C-63.2,721.8-113.3,701.6-151.8,668.2L-151.8,668.2z M-9.9,585.6h-0.4h-0.4
	c-22.8-0.3-40.1-7.4-53-22c-32.6-36.7-25.5-106.5-25.5-107.2v-0.9c3.4-75.9,59.6-81.7,76.7-81.7h1.7c0,0,0.7,0,1,0H-8
	c17,0,73.2,5.9,76.7,81.7v0.9c0.1,0.7,7.2,70.4-25.5,107.2C30.2,578.2,12.9,585.4-9.9,585.6L-9.9,585.6z M156,647.6
	c-94.8-27.5-97.9-61.1-97.9-61.4v0.7h-1.4c2-1.9,4-3.9,5.9-6c39.1-44.1,32.6-119.7,31.9-126.8C90.7,375.6,36.9,347.7-8.2,347.7h-2.3
	h-2.3c-45,0-98.8,27.8-102.7,106.2c-0.7,7-7.3,82.8,31.9,126.8c2.4,2.7,5.2,5.3,7.7,7.7c-2.1,7.2-16.2,35.4-97.2,59
	c-34.4-38.8-55.3-89.6-55.3-145.5c0-121.1,98.5-219.8,219.8-219.8S211.3,380.8,211.3,502C211.4,557.9,190.4,608.8,156,647.6
	L156,647.6z"/>
</svg>
