<?xml version="1.0" encoding="utf-8"?>
<!-- Generator: Adobe Illustrator 24.1.2, SVG Export Plug-In . SVG Version: 6.00 Build 0)  -->
<svg version="1.1" id="Camada_1" focusable="false" xmlns="http://www.w3.org/2000/svg" xmlns:xlink="http://www.w3.org/1999/xlink"
	 x="0px" y="0px" viewBox="0 0 512 512" style="enable-background:new 0 0 512 512;" xml:space="preserve">
<style type="text/css">
	.st0{fill:#096796;}
</style>
<path class="st0" d="M371.7,238l-176-107c-15.8-8.8-35.7,2.5-35.7,21v208c0,18.4,19.8,29.8,35.7,21l176-101
	C388.1,270.9,388.1,247.2,371.7,238z M504,256C504,119,393,8,256,8S8,119,8,256s111,248,248,248S504,393,504,256z M56,256
	c0-110.5,89.5-200,200-200s200,89.5,200,200s-89.5,200-200,200S56,366.5,56,256z"/>
</svg>
